<svg width="683" height="198" viewBox="0 0 683 198" fill="none" xmlns="http://www.w3.org/2000/svg">
<path d="M238.22 104.946C238.22 101.066 240.27 99.0256 244.14 99.0256H265.56C289.78 99.0256 305.28 113.126 305.28 137.346C305.28 161.566 289.78 175.996 265.56 175.996H244.14C240.26 175.996 238.22 173.956 238.22 170.076V104.946ZM264.81 159.846C277.84 159.846 285.8 152.096 285.8 137.346C285.8 122.706 277.51 115.166 264.81 115.166H257.06V159.846H264.81Z" fill="#AC6007"/>
<path d="M314.44 126.476C314.44 122.596 316.49 120.556 320.36 120.556H327.14C331.02 120.556 333.06 122.606 333.06 126.476V170.076C333.06 173.956 331.01 175.996 327.14 175.996H320.36C316.48 175.996 314.44 173.956 314.44 170.076V126.476ZM314.65 107.636V104.946C314.65 101.066 316.7 99.0256 320.57 99.0256H326.92C330.8 99.0256 332.84 101.076 332.84 104.946V107.636C332.84 111.516 330.79 113.556 326.92 113.556H320.57C316.7 113.556 314.65 111.506 314.65 107.636Z" fill="#AC6007"/>
<path d="M342.53 164.046L344.14 161.566C346.29 158.446 348.66 158.116 352.32 159.846C355.01 161.026 358.46 162.756 362.87 162.756C366.64 162.756 367.93 161.356 367.93 159.636C367.93 153.176 341.99 156.296 341.99 136.816C341.99 125.406 352.22 119.266 365.03 119.266C372.03 119.266 377.3 121.206 380.75 122.816C384.09 124.426 384.52 127.446 382.9 130.786L381.61 133.366C380 136.806 377.41 137.346 373.75 135.946C371.17 134.976 367.94 133.796 364.28 133.796C360.3 133.796 359.33 135.196 359.33 136.706C359.33 143.056 385.27 139.826 385.27 159.096C385.27 169.426 376.66 177.286 362.45 177.286C354.16 177.286 347.92 174.486 344.04 172.226C340.81 170.396 340.49 167.266 342.53 164.046Z" fill="#AC6007"/>
<path d="M393.66 126.476C393.66 122.596 395.71 120.556 399.58 120.556H404.42C408.3 120.556 410.34 122.606 410.34 125.396V126.576C410.34 127.116 410.23 127.656 410.23 127.656H410.45C410.45 127.656 415.51 119.256 427.24 119.256C442.31 119.256 452.22 131.096 452.22 148.326C452.22 165.876 441.13 177.286 426.38 177.286C416.37 177.286 412.28 170.936 412.28 170.936H412.06C412.06 170.936 412.28 172.876 412.28 175.676V191.606C412.28 195.486 410.23 197.526 406.36 197.526H399.58C395.7 197.526 393.66 195.476 393.66 191.606V126.476ZM422.62 161.886C428.43 161.886 433.49 157.146 433.49 148.646C433.49 140.356 429.08 134.976 422.62 134.976C417.02 134.976 411.75 139.066 411.75 148.646C411.75 155.326 415.3 161.886 422.62 161.886Z" fill="#AC6007"/>
<path d="M486.03 119.256C502.5 119.256 511.65 130.886 511.65 145.736C511.65 148.646 509.07 151.876 505.41 151.876H476.24C477.64 158.656 483.24 161.776 489.16 161.776C492.93 161.776 496.48 160.596 499.28 159.196C502.83 157.586 505.42 158.016 507.25 161.456L508.76 164.256C510.48 167.596 509.94 170.496 506.72 172.326C502.74 174.586 496.17 177.276 487.67 177.276C467.86 177.276 457.21 162.956 457.21 148.206C457.18 131.966 468.16 119.256 486.03 119.256ZM493.24 141.216C493.24 136.696 490.33 132.926 485.6 132.926C480.22 132.926 477.63 136.806 476.67 141.216H493.24Z" fill="#AC6007"/>
<path d="M519.29 126.476C519.29 122.596 521.33 120.556 525.21 120.556H531.24C535.12 120.556 537.05 122.606 537.05 126.476V127.446C537.05 127.986 536.94 128.846 536.94 128.846H537.16C539.74 124.536 545.02 119.266 554.81 119.266C566.01 119.266 574.73 124.436 574.73 140.046V170.076C574.73 173.956 572.68 175.996 568.81 175.996H562.03C558.15 175.996 556.11 173.956 556.11 170.076V143.486C556.11 138.316 554.07 136.166 549.97 136.166C541.68 136.166 537.91 143.056 537.91 150.916V170.076C537.91 173.956 535.86 175.996 531.99 175.996H525.21C521.33 175.996 519.29 173.956 519.29 170.076V126.476Z" fill="#AC6007"/>
<path d="M583.44 164.046L585.05 161.566C587.2 158.446 589.57 158.116 593.23 159.846C595.92 161.026 599.37 162.756 603.78 162.756C607.55 162.756 608.84 161.356 608.84 159.636C608.84 153.176 582.9 156.296 582.9 136.816C582.9 125.406 593.13 119.266 605.94 119.266C612.94 119.266 618.21 121.206 621.66 122.816C625 124.426 625.43 127.446 623.81 130.786L622.52 133.366C620.9 136.806 618.32 137.346 614.66 135.946C612.08 134.976 608.85 133.796 605.19 133.796C601.21 133.796 600.24 135.196 600.24 136.706C600.24 143.056 626.18 139.826 626.18 159.096C626.18 169.426 617.57 177.286 603.36 177.286C595.07 177.286 588.83 174.486 584.95 172.226C581.72 170.396 581.4 167.266 583.44 164.046Z" fill="#AC6007"/>
<path d="M662.03 141.436H663.64V140.466C663.64 135.836 659.87 134.326 655.78 134.326C652.23 134.326 648.57 135.506 645.77 136.806C642.22 138.316 639.53 137.666 637.8 134.226L636.51 131.536C634.9 128.196 635.54 125.296 638.88 123.566C643.08 121.626 649.54 119.256 657.5 119.256C672.79 119.256 682.26 127.756 682.26 141.866V170.066C682.26 173.946 680.22 175.986 676.34 175.986H671.17C667.29 175.986 665.25 174.046 665.25 169.956V169.526C665.25 168.876 665.36 168.446 665.36 168.446H665.15C665.15 168.446 659.87 177.276 648.79 177.276C638.13 177.276 630.71 169.956 630.71 160.376C630.7 145.526 648.36 141.436 662.03 141.436ZM654.38 163.396C659.76 163.396 663.85 158.116 663.85 153.596V152.086H662.13C656.42 152.086 649.1 153.596 649.1 158.656C649.11 161.246 650.94 163.396 654.38 163.396Z" fill="#AC6007"/>
<path fill-rule="evenodd" clip-rule="evenodd" d="M124.52 73.2157C112.31 71.0857 103.66 59.6157 105.81 47.4057C105.83 47.3157 105.84 47.2357 105.86 47.1457C108.92 50.8057 113.08 53.9357 118.13 56.1857C130.34 61.6257 136.81 55.8657 139.03 53.1357C144.13 46.8557 144.23 36.1657 139.26 29.2957C136.98 26.1457 130.26 19.3757 117.08 24.3957C112.83 26.0157 109.3 28.3157 106.49 31.2857C106.5 30.2157 106.63 29.1457 106.87 28.0757C109.3 17.2257 124.05 5.85568 158.2 6.60568C158.21 6.60568 158.23 6.60568 158.24 6.60568C160.04 6.62568 161.52 5.18568 161.55 3.38568C161.59 1.57568 160.15 0.0657067 158.33 0.0357067C110.34 -0.984293 101.9 20.1357 100.45 26.6357C99.48 30.9657 99.83 35.3157 101.31 39.3657C99.56 43.5857 98.84 48.1657 98.74 52.6857C98.5 63.2357 91.22 72.1257 80.96 74.6257C34.88 85.8457 0.47 127.166 0 176.766L212.29 178.766C212.78 126.056 174.79 81.9857 124.52 73.2157ZM119.41 30.5257C125.89 28.0657 130.91 28.9657 133.93 33.1357C137.21 37.6757 137.21 44.9257 133.92 48.9757C130.45 53.2457 124.87 51.9857 120.8 50.1657C115.15 47.6457 110.91 43.8257 108.56 39.4457C110.9 35.3357 114.47 32.4057 119.41 30.5257Z" fill="#FCBF49"/>
<path fill-rule="evenodd" clip-rule="evenodd" d="M196.85 178.606C197.32 128.516 157.09 87.5156 107 87.0456C56.8999 86.5756 15.9099 126.806 15.4399 176.896L196.85 178.606Z" fill="#EAE2B7"/>
<path fill-rule="evenodd" clip-rule="evenodd" d="M184.26 178.456C184.65 137.306 151.6 103.626 110.45 103.236C69.2999 102.846 35.62 135.896 35.23 177.046L184.26 178.456Z" fill="#F77F00"/>
<path fill-rule="evenodd" clip-rule="evenodd" d="M106.57 132.426C110.6 127.126 110.96 116.986 106.72 116.946C102.47 116.906 102.64 127.046 106.57 132.426Z" fill="#001400"/>
<path fill-rule="evenodd" clip-rule="evenodd" d="M129.18 138.706C135.32 136.126 140.7 127.526 137.05 125.366C133.39 123.226 128.46 132.086 129.18 138.706Z" fill="#001400"/>
<path fill-rule="evenodd" clip-rule="evenodd" d="M145.61 155.456C152.22 156.296 161.18 151.536 159.09 147.846C157.01 144.156 148.31 149.366 145.61 155.456Z" fill="#001400"/>
<path fill-rule="evenodd" clip-rule="evenodd" d="M83.84 138.286C84.68 131.676 79.92 122.716 76.22 124.806C72.54 126.886 77.75 135.586 83.84 138.286Z" fill="#001400"/>
<path fill-rule="evenodd" clip-rule="evenodd" d="M67.0899 154.716C64.5099 148.576 55.9098 143.196 53.7598 146.846C51.6098 150.506 60.4699 155.436 67.0899 154.716Z" fill="#001400"/>
</svg>
