<svg width="213" height="179" viewBox="0 0 213 179" fill="none" xmlns="http://www.w3.org/2000/svg">
<path fill-rule="evenodd" clip-rule="evenodd" d="M124.52 73.2157C112.31 71.0857 103.66 59.6157 105.81 47.4057C105.83 47.3157 105.84 47.2357 105.86 47.1457C108.92 50.8057 113.08 53.9357 118.13 56.1857C130.34 61.6257 136.81 55.8657 139.03 53.1357C144.13 46.8557 144.23 36.1657 139.26 29.2957C136.98 26.1457 130.26 19.3757 117.08 24.3957C112.83 26.0157 109.3 28.3157 106.49 31.2857C106.5 30.2157 106.63 29.1457 106.87 28.0757C109.3 17.2257 124.05 5.85568 158.2 6.60568C158.21 6.60568 158.23 6.60568 158.24 6.60568C160.04 6.62568 161.52 5.18568 161.55 3.38568C161.59 1.57568 160.15 0.0657067 158.33 0.0357067C110.34 -0.984293 101.9 20.1357 100.45 26.6357C99.48 30.9657 99.83 35.3157 101.31 39.3657C99.56 43.5857 98.84 48.1657 98.74 52.6857C98.5 63.2357 91.22 72.1257 80.96 74.6257C34.88 85.8457 0.47 127.166 0 176.766L212.29 178.766C212.78 126.056 174.79 81.9857 124.52 73.2157ZM119.41 30.5257C125.89 28.0657 130.91 28.9657 133.93 33.1357C137.21 37.6757 137.21 44.9257 133.92 48.9757C130.45 53.2457 124.87 51.9857 120.8 50.1657C115.15 47.6457 110.91 43.8257 108.56 39.4457C110.9 35.3357 114.47 32.4057 119.41 30.5257Z" fill="#FCBF49"/>
<path fill-rule="evenodd" clip-rule="evenodd" d="M196.85 178.606C197.32 128.516 157.09 87.5156 107 87.0456C56.8999 86.5756 15.9099 126.806 15.4399 176.896L196.85 178.606Z" fill="#EAE2B7"/>
<path fill-rule="evenodd" clip-rule="evenodd" d="M184.26 178.456C184.65 137.306 151.6 103.626 110.45 103.236C69.2999 102.846 35.62 135.896 35.23 177.046L184.26 178.456Z" fill="#F77F00"/>
<path fill-rule="evenodd" clip-rule="evenodd" d="M106.57 132.426C110.6 127.126 110.96 116.986 106.72 116.946C102.47 116.906 102.64 127.046 106.57 132.426Z" fill="#001400"/>
<path fill-rule="evenodd" clip-rule="evenodd" d="M129.18 138.706C135.32 136.126 140.7 127.526 137.05 125.366C133.39 123.226 128.46 132.086 129.18 138.706Z" fill="#001400"/>
<path fill-rule="evenodd" clip-rule="evenodd" d="M145.61 155.456C152.22 156.296 161.18 151.536 159.09 147.846C157.01 144.156 148.31 149.366 145.61 155.456Z" fill="#001400"/>
<path fill-rule="evenodd" clip-rule="evenodd" d="M83.84 138.286C84.68 131.676 79.92 122.716 76.22 124.806C72.54 126.886 77.75 135.586 83.84 138.286Z" fill="#001400"/>
<path fill-rule="evenodd" clip-rule="evenodd" d="M67.0899 154.716C64.5099 148.576 55.9098 143.196 53.7598 146.846C51.6098 150.506 60.4699 155.436 67.0899 154.716Z" fill="#001400"/>
</svg>
